<svg xmlns="http://www.w3.org/2000/svg" xmlns:xlink="http://www.w3.org/1999/xlink" width="40" zoomAndPan="magnify" viewBox="0 0 30 30.000001" height="40" preserveAspectRatio="xMidYMid meet" version="1.0"><defs><clipPath id="54cee3bfda"><path d="M 3.722656 0.515625 L 26.21875 0.515625 L 26.21875 28.824219 L 3.722656 28.824219 Z M 3.722656 0.515625 " clip-rule="nonzero"/></clipPath></defs><g clip-path="url(#54cee3bfda)"><path fill="#ea580c" d="M 26.261719 6.675781 L 24.5 6.855469 L 24.5 23.316406 L 8.128906 26.65625 C 7.425781 26.746094 6.898438 26.476562 6.542969 26.21875 L 4.433594 26.65625 C 4.960938 27.359375 6.285156 28.507812 8.832031 28.152344 L 26.257812 24.542969 L 26.257812 6.675781 Z M 7.515625 17.59375 L 12.972656 14.601562 L 12.972656 16.535156 L 18.867188 12.75 L 18.601562 12.046875 L 20.363281 12.660156 L 19.570312 14.335938 L 19.304688 13.71875 L 17.894531 14.601562 L 17.894531 21.289062 L 21.066406 20.582031 L 21.066406 2.714844 L 6.371094 6.0625 C 5.847656 6.238281 5.492188 6.765625 5.492188 7.292969 L 5.492188 23.839844 L 8.75 23.136719 L 8.75 18.035156 L 7.519531 18.738281 L 7.519531 17.59375 Z M 15.257812 16.273438 L 14.644531 16.710938 L 14.644531 23.753906 L 12 24.277344 L 12 16.273438 L 11.296875 16.628906 L 11.296875 24.371094 L 5.753906 25.515625 L 3.730469 25.953125 L 3.730469 7.292969 C 3.730469 5.972656 4.699219 4.738281 5.929688 4.390625 L 6.195312 4.300781 L 22.738281 0.515625 L 22.738281 21.992188 L 15.257812 23.574219 Z M 17.902344 13.105469 L 17.902344 6.238281 L 15.257812 6.855469 L 15.257812 14.777344 Z M 12 9.847656 L 12 14.777344 L 13.320312 14.164062 L 13.320312 16.011719 L 14.636719 15.132812 L 14.636719 9.320312 Z M 8.742188 13.277344 L 8.742188 16.621094 L 11.296875 15.214844 L 11.296875 12.660156 Z M 8.742188 13.277344 " fill-opacity="1" fill-rule="nonzero"/></g></svg>
