<svg xmlns="http://www.w3.org/2000/svg" xmlns:xlink="http://www.w3.org/1999/xlink" width="400" zoomAndPan="magnify" viewBox="0 0 300 299.999988" height="400" preserveAspectRatio="xMidYMid meet" version="1.0"><defs><clipPath id="02132037b0"><path d="M 33.484375 5.34375 L 266.664062 5.34375 L 266.664062 292 L 33.484375 292 Z M 33.484375 5.34375 " clip-rule="nonzero"/></clipPath></defs><g clip-path="url(#02132037b0)"><path fill="#ea580c" d="M 266.453125 69.023438 L 248.242188 70.855469 L 248.242188 240.996094 L 79.015625 275.527344 C 71.742188 276.445312 66.304688 273.695312 62.636719 271.003906 L 40.820312 275.527344 C 46.261719 282.800781 59.945312 294.65625 86.289062 290.988281 L 266.394531 253.710938 L 266.394531 69.023438 Z M 72.660156 181.839844 L 129.066406 150.914062 L 129.066406 170.902344 L 190 131.789062 L 187.25 124.515625 L 205.460938 130.871094 L 197.273438 148.167969 L 194.523438 141.808594 L 179.976562 150.914062 L 179.976562 220.035156 L 212.734375 212.761719 L 212.734375 28.078125 L 60.863281 62.667969 C 55.421875 64.5 51.757812 69.941406 51.757812 75.378906 L 51.757812 246.4375 L 85.429688 239.164062 L 85.429688 186.421875 L 72.71875 193.695312 L 72.71875 181.839844 Z M 152.71875 168.210938 L 146.363281 172.734375 L 146.363281 245.519531 L 119.046875 250.960938 L 119.046875 168.210938 L 111.773438 171.875 L 111.773438 251.933594 L 54.449219 263.730469 L 33.546875 268.253906 L 33.546875 75.378906 C 33.546875 61.75 43.566406 48.980469 56.28125 45.371094 L 59.03125 44.457031 L 230.03125 5.34375 L 230.03125 227.308594 L 152.71875 243.6875 Z M 180.035156 135.453125 L 180.035156 64.5 L 152.71875 70.855469 L 152.71875 152.746094 Z M 119.046875 101.78125 L 119.046875 152.746094 L 132.675781 146.390625 L 132.675781 165.519531 L 146.304688 156.414062 L 146.304688 96.339844 Z M 85.375 137.230469 L 85.375 171.816406 L 111.773438 157.273438 L 111.773438 130.871094 Z M 85.375 137.230469 " fill-opacity="1" fill-rule="nonzero"/></g></svg>
