<svg xmlns="http://www.w3.org/2000/svg" xmlns:xlink="http://www.w3.org/1999/xlink" width="600" zoomAndPan="magnify" viewBox="0 0 450 299.999988" height="400" preserveAspectRatio="xMidYMid meet" version="1.0"><defs><g/><clipPath id="cfbbb407cd"><path d="M 171 95 L 288 95 L 288 151.144531 L 171 151.144531 Z M 171 95 " clip-rule="nonzero"/></clipPath><clipPath id="22aa5bdb05"><path d="M 117.265625 48.796875 L 332.734375 48.796875 L 332.734375 147 L 117.265625 147 Z M 117.265625 48.796875 " clip-rule="nonzero"/></clipPath></defs><g clip-path="url(#cfbbb407cd)"><path fill="#f4f4f5" d="M 286.996094 128.859375 L 287.144531 95.714844 L 221.199219 125.28125 L 205.265625 114.25 L 171.632812 128.664062 C 192.078125 129.890625 208.355469 139.5 223.503906 151.316406 L 223.503906 151.414062 L 223.554688 151.363281 L 223.601562 151.414062 L 223.601562 151.316406 C 241.546875 137.390625 260.960938 126.507812 286.996094 128.859375 Z M 286.996094 128.859375 " fill-opacity="1" fill-rule="evenodd"/></g><path fill="#f4f4f5" d="M 158.296875 134.398438 L 143.390625 140.824219 L 143.390625 148.175781 C 166.238281 138.175781 188.15625 140.773438 209.726562 148.816406 C 195.117188 139.890625 178.644531 134.007812 158.296875 134.398438 Z M 158.296875 134.398438 " fill-opacity="1" fill-rule="evenodd"/><path fill="#f4f4f5" d="M 294.597656 92.382812 L 294.402344 134.644531 C 271.75 133.125 253.804688 139.203125 238.066406 148.816406 C 259.640625 140.773438 281.554688 138.175781 304.402344 148.175781 L 304.402344 87.871094 Z M 294.597656 92.382812 " fill-opacity="1" fill-rule="evenodd"/><g clip-path="url(#22aa5bdb05)"><path fill="#65a30d" d="M 304.304688 58.257812 L 308.914062 65.5625 L 287.242188 76.152344 L 287.390625 48.796875 C 263.070312 49.875 238.507812 58.207031 224.679688 68.945312 C 207.667969 55.5625 184.132812 49.875 159.816406 48.796875 L 160.207031 121.0625 L 153.394531 125.085938 L 153.050781 58.550781 L 143.390625 63.0625 L 143.390625 131.015625 L 117.355469 146.363281 L 205.609375 107.335938 L 221.542969 117.4375 L 315.386719 75.125 L 319.796875 81.496094 L 332.644531 56.738281 Z M 274.542969 62.03125 L 274.542969 82.332031 L 260.960938 88.949219 L 260.960938 62.03125 Z M 253.609375 73.308594 L 253.609375 92.527344 L 240.027344 99.148438 L 240.027344 73.308594 Z M 229.878906 80.910156 L 229.878906 104.101562 L 223.699219 107.140625 L 216.296875 100.324219 L 216.296875 80.910156 Z M 208.058594 68.554688 L 208.058594 92.726562 L 194.429688 100.765625 L 194.429688 68.554688 Z M 172.515625 76.449219 L 186.144531 76.449219 L 186.144531 105.667969 L 172.515625 113.710938 Z M 172.515625 76.449219 " fill-opacity="1" fill-rule="evenodd"/></g><g fill="#65a30d" fill-opacity="1"><g transform="translate(71.318405, 218.407679)"><g><path d="M 3.375 0 L 3.375 -38.8125 L 29.0625 -38.8125 L 29.0625 -32.046875 L 11.578125 -32.046875 L 11.578125 -22.796875 L 27.359375 -22.796875 L 27.359375 -16.03125 L 11.578125 -16.03125 L 11.578125 0 Z M 3.375 0 "/></g></g></g><g fill="#65a30d" fill-opacity="1"><g transform="translate(102.524847, 218.407679)"><g><path d="M 11.296875 -38.8125 L 11.296875 0 L 3.21875 0 L 3.21875 -38.8125 Z M 11.296875 -38.8125 "/></g></g></g><g fill="#65a30d" fill-opacity="1"><g transform="translate(117.038587, 218.407679)"><g><path d="M 16.484375 0.5625 C 13.503906 0.5625 10.929688 -0.046875 8.765625 -1.265625 C 6.609375 -2.484375 4.945312 -4.210938 3.78125 -6.453125 C 2.625 -8.691406 2.046875 -11.347656 2.046875 -14.421875 C 2.046875 -17.410156 2.625 -20.035156 3.78125 -22.296875 C 4.945312 -24.554688 6.585938 -26.316406 8.703125 -27.578125 C 10.816406 -28.847656 13.300781 -29.484375 16.15625 -29.484375 C 18.726562 -29.484375 21.046875 -28.9375 23.109375 -27.84375 C 25.171875 -26.757812 26.804688 -25.125 28.015625 -22.9375 C 29.234375 -20.75 29.84375 -18.003906 29.84375 -14.703125 L 29.84375 -12.484375 L 10.03125 -12.484375 L 10.03125 -12.46875 C 10.03125 -10.289062 10.625 -8.578125 11.8125 -7.328125 C 13 -6.078125 14.601562 -5.453125 16.625 -5.453125 C 17.96875 -5.453125 19.128906 -5.734375 20.109375 -6.296875 C 21.097656 -6.867188 21.796875 -7.710938 22.203125 -8.828125 L 29.671875 -8.34375 C 29.109375 -5.632812 27.671875 -3.472656 25.359375 -1.859375 C 23.046875 -0.242188 20.085938 0.5625 16.484375 0.5625 Z M 10.03125 -17.484375 L 22.25 -17.484375 C 22.238281 -19.210938 21.679688 -20.640625 20.578125 -21.765625 C 19.472656 -22.890625 18.046875 -23.453125 16.296875 -23.453125 C 14.503906 -23.453125 13.03125 -22.867188 11.875 -21.703125 C 10.726562 -20.546875 10.113281 -19.140625 10.03125 -17.484375 Z M 10.03125 -17.484375 "/></g></g></g><g fill="#65a30d" fill-opacity="1"><g transform="translate(148.927143, 218.407679)"><g><path d="M 9.96875 -29.109375 L 15.3125 -18.921875 L 20.78125 -29.109375 L 29.0625 -29.109375 L 20.640625 -14.546875 L 29.296875 0 L 21.046875 0 L 15.3125 -10.0625 L 9.65625 0 L 1.328125 0 L 9.96875 -14.546875 L 1.625 -29.109375 Z M 9.96875 -29.109375 "/></g></g></g><g fill="#65a30d" fill-opacity="1"><g transform="translate(179.546217, 218.407679)"><g><path d="M 3.21875 0 L 3.21875 -29.109375 L 11.296875 -29.109375 L 11.296875 0 Z M 7.265625 -32.859375 C 6.078125 -32.859375 5.050781 -33.257812 4.1875 -34.0625 C 3.332031 -34.863281 2.90625 -35.828125 2.90625 -36.953125 C 2.90625 -38.078125 3.332031 -39.035156 4.1875 -39.828125 C 5.050781 -40.628906 6.078125 -41.03125 7.265625 -41.03125 C 8.460938 -41.03125 9.488281 -40.628906 10.34375 -39.828125 C 11.207031 -39.035156 11.640625 -38.078125 11.640625 -36.953125 C 11.640625 -35.828125 11.207031 -34.863281 10.34375 -34.0625 C 9.488281 -33.257812 8.460938 -32.859375 7.265625 -32.859375 Z M 7.265625 -32.859375 "/></g></g></g><g fill="#65a30d" fill-opacity="1"><g transform="translate(194.059957, 218.407679)"><g><path d="M 3.375 0 L 3.375 -38.8125 L 11.578125 -38.8125 L 11.578125 -6.765625 L 28.21875 -6.765625 L 28.21875 0 Z M 3.375 0 "/></g></g></g><g fill="#65a30d" fill-opacity="1"><g transform="translate(224.337974, 218.407679)"><g><path d="M 16.484375 0.5625 C 13.503906 0.5625 10.929688 -0.046875 8.765625 -1.265625 C 6.609375 -2.484375 4.945312 -4.210938 3.78125 -6.453125 C 2.625 -8.691406 2.046875 -11.347656 2.046875 -14.421875 C 2.046875 -17.410156 2.625 -20.035156 3.78125 -22.296875 C 4.945312 -24.554688 6.585938 -26.316406 8.703125 -27.578125 C 10.816406 -28.847656 13.300781 -29.484375 16.15625 -29.484375 C 18.726562 -29.484375 21.046875 -28.9375 23.109375 -27.84375 C 25.171875 -26.757812 26.804688 -25.125 28.015625 -22.9375 C 29.234375 -20.75 29.84375 -18.003906 29.84375 -14.703125 L 29.84375 -12.484375 L 10.03125 -12.484375 L 10.03125 -12.46875 C 10.03125 -10.289062 10.625 -8.578125 11.8125 -7.328125 C 13 -6.078125 14.601562 -5.453125 16.625 -5.453125 C 17.96875 -5.453125 19.128906 -5.734375 20.109375 -6.296875 C 21.097656 -6.867188 21.796875 -7.710938 22.203125 -8.828125 L 29.671875 -8.34375 C 29.109375 -5.632812 27.671875 -3.472656 25.359375 -1.859375 C 23.046875 -0.242188 20.085938 0.5625 16.484375 0.5625 Z M 10.03125 -17.484375 L 22.25 -17.484375 C 22.238281 -19.210938 21.679688 -20.640625 20.578125 -21.765625 C 19.472656 -22.890625 18.046875 -23.453125 16.296875 -23.453125 C 14.503906 -23.453125 13.03125 -22.867188 11.875 -21.703125 C 10.726562 -20.546875 10.113281 -19.140625 10.03125 -17.484375 Z M 10.03125 -17.484375 "/></g></g></g><g fill="#65a30d" fill-opacity="1"><g transform="translate(256.226529, 218.407679)"><g><path d="M 13.953125 0.46875 C 11.734375 0.46875 9.734375 -0.0976562 7.953125 -1.234375 C 6.171875 -2.378906 4.753906 -4.066406 3.703125 -6.296875 C 2.660156 -8.523438 2.140625 -11.265625 2.140625 -14.515625 C 2.140625 -17.847656 2.675781 -20.625 3.75 -22.84375 C 4.832031 -25.0625 6.269531 -26.722656 8.0625 -27.828125 C 9.851562 -28.929688 11.804688 -29.484375 13.921875 -29.484375 C 15.554688 -29.484375 16.921875 -29.207031 18.015625 -28.65625 C 19.109375 -28.101562 19.988281 -27.421875 20.65625 -26.609375 C 21.332031 -25.804688 21.847656 -25.007812 22.203125 -24.21875 L 22.453125 -24.21875 L 22.453125 -38.8125 L 30.5 -38.8125 L 30.5 0 L 22.546875 0 L 22.546875 -4.65625 L 22.203125 -4.65625 C 21.835938 -3.851562 21.304688 -3.054688 20.609375 -2.265625 C 19.921875 -1.472656 19.03125 -0.816406 17.9375 -0.296875 C 16.84375 0.210938 15.515625 0.46875 13.953125 0.46875 Z M 16.5 -5.953125 C 18.445312 -5.953125 19.953125 -6.738281 21.015625 -8.3125 C 22.085938 -9.882812 22.625 -11.960938 22.625 -14.546875 C 22.625 -17.148438 22.09375 -19.21875 21.03125 -20.75 C 19.96875 -22.289062 18.457031 -23.0625 16.5 -23.0625 C 14.507812 -23.0625 12.992188 -22.273438 11.953125 -20.703125 C 10.910156 -19.128906 10.390625 -17.078125 10.390625 -14.546875 C 10.390625 -12.015625 10.910156 -9.945312 11.953125 -8.34375 C 13.003906 -6.75 14.519531 -5.953125 16.5 -5.953125 Z M 16.5 -5.953125 "/></g></g></g><g fill="#65a30d" fill-opacity="1"><g transform="translate(290.1235, 218.407679)"><g><path d="M 16.328125 11.328125 C 12.410156 11.328125 9.332031 10.554688 7.09375 9.015625 C 4.863281 7.472656 3.507812 5.601562 3.03125 3.40625 L 10.5 2.40625 C 10.820312 3.1875 11.457031 3.898438 12.40625 4.546875 C 13.363281 5.203125 14.734375 5.53125 16.515625 5.53125 C 18.273438 5.53125 19.726562 5.113281 20.875 4.28125 C 22.019531 3.445312 22.59375 2.078125 22.59375 0.171875 L 22.59375 -5.15625 L 22.25 -5.15625 C 21.71875 -3.957031 20.78125 -2.867188 19.4375 -1.890625 C 18.101562 -0.910156 16.273438 -0.421875 13.953125 -0.421875 C 11.765625 -0.421875 9.773438 -0.929688 7.984375 -1.953125 C 6.203125 -2.972656 4.78125 -4.53125 3.71875 -6.625 C 2.664062 -8.726562 2.140625 -11.390625 2.140625 -14.609375 C 2.140625 -17.921875 2.675781 -20.675781 3.75 -22.875 C 4.832031 -25.070312 6.269531 -26.722656 8.0625 -27.828125 C 9.851562 -28.929688 11.804688 -29.484375 13.921875 -29.484375 C 15.554688 -29.484375 16.921875 -29.207031 18.015625 -28.65625 C 19.117188 -28.101562 20.007812 -27.421875 20.6875 -26.609375 C 21.375 -25.804688 21.894531 -25.007812 22.25 -24.21875 L 22.546875 -24.21875 L 22.546875 -29.109375 L 30.5625 -29.109375 L 30.5625 0.28125 C 30.5625 2.695312 29.953125 4.722656 28.734375 6.359375 C 27.515625 8.003906 25.835938 9.242188 23.703125 10.078125 C 21.566406 10.910156 19.109375 11.328125 16.328125 11.328125 Z M 16.5 -6.484375 C 18.445312 -6.484375 19.953125 -7.203125 21.015625 -8.640625 C 22.085938 -10.078125 22.625 -12.078125 22.625 -14.640625 C 22.625 -17.191406 22.09375 -19.234375 21.03125 -20.765625 C 19.96875 -22.296875 18.457031 -23.0625 16.5 -23.0625 C 14.507812 -23.0625 12.992188 -22.273438 11.953125 -20.703125 C 10.910156 -19.140625 10.390625 -17.117188 10.390625 -14.640625 C 10.390625 -12.128906 10.910156 -10.140625 11.953125 -8.671875 C 13.003906 -7.210938 14.519531 -6.484375 16.5 -6.484375 Z M 16.5 -6.484375 "/></g></g></g><g fill="#65a30d" fill-opacity="1"><g transform="translate(323.906818, 218.407679)"><g><path d="M 16.484375 0.5625 C 13.503906 0.5625 10.929688 -0.046875 8.765625 -1.265625 C 6.609375 -2.484375 4.945312 -4.210938 3.78125 -6.453125 C 2.625 -8.691406 2.046875 -11.347656 2.046875 -14.421875 C 2.046875 -17.410156 2.625 -20.035156 3.78125 -22.296875 C 4.945312 -24.554688 6.585938 -26.316406 8.703125 -27.578125 C 10.816406 -28.847656 13.300781 -29.484375 16.15625 -29.484375 C 18.726562 -29.484375 21.046875 -28.9375 23.109375 -27.84375 C 25.171875 -26.757812 26.804688 -25.125 28.015625 -22.9375 C 29.234375 -20.75 29.84375 -18.003906 29.84375 -14.703125 L 29.84375 -12.484375 L 10.03125 -12.484375 L 10.03125 -12.46875 C 10.03125 -10.289062 10.625 -8.578125 11.8125 -7.328125 C 13 -6.078125 14.601562 -5.453125 16.625 -5.453125 C 17.96875 -5.453125 19.128906 -5.734375 20.109375 -6.296875 C 21.097656 -6.867188 21.796875 -7.710938 22.203125 -8.828125 L 29.671875 -8.34375 C 29.109375 -5.632812 27.671875 -3.472656 25.359375 -1.859375 C 23.046875 -0.242188 20.085938 0.5625 16.484375 0.5625 Z M 10.03125 -17.484375 L 22.25 -17.484375 C 22.238281 -19.210938 21.679688 -20.640625 20.578125 -21.765625 C 19.472656 -22.890625 18.046875 -23.453125 16.296875 -23.453125 C 14.503906 -23.453125 13.03125 -22.867188 11.875 -21.703125 C 10.726562 -20.546875 10.113281 -19.140625 10.03125 -17.484375 Z M 10.03125 -17.484375 "/></g></g></g><g fill="#65a30d" fill-opacity="1"><g transform="translate(355.795374, 218.407679)"><g><path d="M 3.21875 0 L 3.21875 -29.109375 L 11.046875 -29.109375 L 11.046875 -24.03125 L 11.34375 -24.03125 C 11.875 -25.832031 12.757812 -27.195312 14 -28.125 C 15.25 -29.050781 16.695312 -29.515625 18.34375 -29.515625 C 19.125 -29.515625 19.847656 -29.421875 20.515625 -29.234375 C 21.191406 -29.046875 21.796875 -28.785156 22.328125 -28.453125 L 19.890625 -21.796875 C 19.515625 -21.984375 19.101562 -22.140625 18.65625 -22.265625 C 18.207031 -22.398438 17.707031 -22.46875 17.15625 -22.46875 C 15.519531 -22.46875 14.132812 -21.910156 13 -20.796875 C 11.875 -19.691406 11.304688 -18.25 11.296875 -16.46875 L 11.296875 0 Z M 3.21875 0 "/></g></g></g><g fill="#f4f4f5" fill-opacity="1"><g transform="translate(99.532462, 247.916835)"><g><path d="M 0.859375 0 L 0.859375 -11.28125 L 5.515625 -11.28125 C 6.359375 -11.28125 7.085938 -11.113281 7.703125 -10.78125 C 8.316406 -10.457031 8.789062 -10.003906 9.125 -9.421875 C 9.457031 -8.835938 9.625 -8.15625 9.625 -7.375 C 9.625 -6.59375 9.453125 -5.910156 9.109375 -5.328125 C 8.773438 -4.753906 8.296875 -4.304688 7.671875 -3.984375 C 7.046875 -3.660156 6.300781 -3.5 5.4375 -3.5 L 2.5625 -3.5 L 2.5625 -5.65625 L 4.921875 -5.65625 C 5.335938 -5.65625 5.679688 -5.722656 5.953125 -5.859375 C 6.234375 -6.003906 6.441406 -6.207031 6.578125 -6.46875 C 6.722656 -6.726562 6.796875 -7.03125 6.796875 -7.375 C 6.796875 -7.726562 6.722656 -8.03125 6.578125 -8.28125 C 6.441406 -8.539062 6.234375 -8.738281 5.953125 -8.875 C 5.671875 -9.007812 5.328125 -9.078125 4.921875 -9.078125 L 3.578125 -9.078125 L 3.578125 0 Z M 0.859375 0 "/></g></g></g><g fill="#f4f4f5" fill-opacity="1"><g transform="translate(109.640701, 247.916835)"><g><path d="M 0.859375 0 L 0.859375 -11.28125 L 8.71875 -11.28125 L 8.71875 -9.0625 L 3.578125 -9.0625 L 3.578125 -6.75 L 8.3125 -6.75 L 8.3125 -4.53125 L 3.578125 -4.53125 L 3.578125 -2.21875 L 8.71875 -2.21875 L 8.71875 0 Z M 0.859375 0 "/></g></g></g><g fill="#f4f4f5" fill-opacity="1"><g transform="translate(119.209395, 247.916835)"><g><path d="M 0.859375 0 L 0.859375 -11.28125 L 5.515625 -11.28125 C 6.359375 -11.28125 7.085938 -11.128906 7.703125 -10.828125 C 8.316406 -10.523438 8.789062 -10.09375 9.125 -9.53125 C 9.457031 -8.96875 9.625 -8.300781 9.625 -7.53125 C 9.625 -6.75 9.453125 -6.082031 9.109375 -5.53125 C 8.773438 -4.988281 8.289062 -4.570312 7.65625 -4.28125 C 7.03125 -4 6.289062 -3.859375 5.4375 -3.859375 L 2.484375 -3.859375 L 2.484375 -6.015625 L 4.921875 -6.015625 C 5.335938 -6.015625 5.679688 -6.066406 5.953125 -6.171875 C 6.234375 -6.285156 6.441406 -6.453125 6.578125 -6.671875 C 6.722656 -6.890625 6.796875 -7.175781 6.796875 -7.53125 C 6.796875 -7.875 6.722656 -8.160156 6.578125 -8.390625 C 6.441406 -8.617188 6.234375 -8.789062 5.953125 -8.90625 C 5.671875 -9.019531 5.328125 -9.078125 4.921875 -9.078125 L 3.578125 -9.078125 L 3.578125 0 Z M 7.203125 -5.15625 L 10.015625 0 L 7.046875 0 L 4.28125 -5.15625 Z M 7.203125 -5.15625 "/></g></g></g><g fill="#f4f4f5" fill-opacity="1"><g transform="translate(129.471786, 247.916835)"><g><path d="M 6.953125 -7.90625 C 6.910156 -8.300781 6.742188 -8.613281 6.453125 -8.84375 C 6.171875 -9.070312 5.765625 -9.1875 5.234375 -9.1875 C 4.878906 -9.1875 4.582031 -9.140625 4.34375 -9.046875 C 4.113281 -8.953125 3.9375 -8.828125 3.8125 -8.671875 C 3.695312 -8.515625 3.640625 -8.332031 3.640625 -8.125 C 3.628906 -7.957031 3.660156 -7.804688 3.734375 -7.671875 C 3.816406 -7.546875 3.929688 -7.429688 4.078125 -7.328125 C 4.222656 -7.234375 4.394531 -7.148438 4.59375 -7.078125 C 4.800781 -7.003906 5.035156 -6.941406 5.296875 -6.890625 L 6.265625 -6.671875 C 6.828125 -6.546875 7.320312 -6.378906 7.75 -6.171875 C 8.175781 -5.972656 8.535156 -5.734375 8.828125 -5.453125 C 9.117188 -5.179688 9.335938 -4.863281 9.484375 -4.5 C 9.640625 -4.132812 9.71875 -3.722656 9.71875 -3.265625 C 9.71875 -2.554688 9.535156 -1.945312 9.171875 -1.4375 C 8.816406 -0.925781 8.304688 -0.535156 7.640625 -0.265625 C 6.972656 0.00390625 6.171875 0.140625 5.234375 0.140625 C 4.285156 0.140625 3.460938 0 2.765625 -0.28125 C 2.066406 -0.5625 1.519531 -0.988281 1.125 -1.5625 C 0.738281 -2.144531 0.539062 -2.875 0.53125 -3.75 L 3.140625 -3.75 C 3.160156 -3.394531 3.253906 -3.09375 3.421875 -2.84375 C 3.597656 -2.601562 3.835938 -2.421875 4.140625 -2.296875 C 4.441406 -2.171875 4.796875 -2.109375 5.203125 -2.109375 C 5.566406 -2.109375 5.878906 -2.15625 6.140625 -2.25 C 6.398438 -2.351562 6.597656 -2.492188 6.734375 -2.671875 C 6.878906 -2.847656 6.953125 -3.050781 6.953125 -3.28125 C 6.953125 -3.488281 6.882812 -3.671875 6.75 -3.828125 C 6.625 -3.984375 6.425781 -4.113281 6.15625 -4.21875 C 5.894531 -4.332031 5.554688 -4.4375 5.140625 -4.53125 L 3.96875 -4.8125 C 2.988281 -5.03125 2.21875 -5.390625 1.65625 -5.890625 C 1.09375 -6.398438 0.816406 -7.082031 0.828125 -7.9375 C 0.816406 -8.632812 1 -9.242188 1.375 -9.765625 C 1.757812 -10.296875 2.285156 -10.707031 2.953125 -11 C 3.617188 -11.289062 4.378906 -11.4375 5.234375 -11.4375 C 6.109375 -11.4375 6.867188 -11.285156 7.515625 -10.984375 C 8.160156 -10.691406 8.660156 -10.28125 9.015625 -9.75 C 9.367188 -9.21875 9.550781 -8.601562 9.5625 -7.90625 Z M 6.953125 -7.90625 "/></g></g></g><g fill="#f4f4f5" fill-opacity="1"><g transform="translate(139.712154, 247.916835)"><g><path d="M 11.5 -5.640625 C 11.5 -4.398438 11.257812 -3.347656 10.78125 -2.484375 C 10.3125 -1.617188 9.664062 -0.960938 8.84375 -0.515625 C 8.03125 -0.0664062 7.117188 0.15625 6.109375 0.15625 C 5.097656 0.15625 4.1875 -0.0664062 3.375 -0.515625 C 2.5625 -0.972656 1.914062 -1.628906 1.4375 -2.484375 C 0.96875 -3.347656 0.734375 -4.398438 0.734375 -5.640625 C 0.734375 -6.878906 0.96875 -7.929688 1.4375 -8.796875 C 1.914062 -9.660156 2.5625 -10.316406 3.375 -10.765625 C 4.1875 -11.210938 5.097656 -11.4375 6.109375 -11.4375 C 7.117188 -11.4375 8.03125 -11.210938 8.84375 -10.765625 C 9.664062 -10.316406 10.3125 -9.660156 10.78125 -8.796875 C 11.257812 -7.929688 11.5 -6.878906 11.5 -5.640625 Z M 8.71875 -5.640625 C 8.71875 -6.378906 8.613281 -7 8.40625 -7.5 C 8.195312 -8.007812 7.898438 -8.394531 7.515625 -8.65625 C 7.128906 -8.914062 6.660156 -9.046875 6.109375 -9.046875 C 5.578125 -9.046875 5.113281 -8.914062 4.71875 -8.65625 C 4.332031 -8.394531 4.035156 -8.007812 3.828125 -7.5 C 3.617188 -7 3.515625 -6.378906 3.515625 -5.640625 C 3.515625 -4.910156 3.617188 -4.289062 3.828125 -3.78125 C 4.035156 -3.269531 4.332031 -2.882812 4.71875 -2.625 C 5.113281 -2.363281 5.578125 -2.234375 6.109375 -2.234375 C 6.660156 -2.234375 7.128906 -2.363281 7.515625 -2.625 C 7.898438 -2.882812 8.195312 -3.269531 8.40625 -3.78125 C 8.613281 -4.289062 8.71875 -4.910156 8.71875 -5.640625 Z M 8.71875 -5.640625 "/></g></g></g><g fill="#f4f4f5" fill-opacity="1"><g transform="translate(151.940037, 247.916835)"><g><path d="M 10.453125 -11.28125 L 10.453125 0 L 8.140625 0 L 3.65625 -6.515625 L 3.578125 -6.515625 L 3.578125 0 L 0.859375 0 L 0.859375 -11.28125 L 3.203125 -11.28125 L 7.640625 -4.78125 L 7.734375 -4.78125 L 7.734375 -11.28125 Z M 10.453125 -11.28125 "/></g></g></g><g fill="#f4f4f5" fill-opacity="1"><g transform="translate(163.242979, 247.916835)"><g><path d="M 3.296875 0 L 0.359375 0 L 4.171875 -11.28125 L 7.796875 -11.28125 L 11.609375 0 L 8.671875 0 L 6.03125 -8.4375 L 5.9375 -8.4375 Z M 2.90625 -4.4375 L 9.03125 -4.4375 L 9.03125 -2.375 L 2.90625 -2.375 Z M 2.90625 -4.4375 "/></g></g></g><g fill="#f4f4f5" fill-opacity="1"><g transform="translate(175.206591, 247.916835)"><g><path d="M 0.859375 0 L 0.859375 -11.28125 L 3.578125 -11.28125 L 3.578125 -2.21875 L 8.28125 -2.21875 L 8.28125 0 Z M 0.859375 0 "/></g></g></g><g fill="#f4f4f5" fill-opacity="1"><g transform="translate(184.03203, 247.916835)"><g/></g></g><g fill="#f4f4f5" fill-opacity="1"><g transform="translate(187.368409, 247.916835)"><g><path d="M 0.859375 0 L 0.859375 -11.28125 L 8.5625 -11.28125 L 8.5625 -9.0625 L 3.578125 -9.0625 L 3.578125 -6.75 L 8.0625 -6.75 L 8.0625 -4.53125 L 3.578125 -4.53125 L 3.578125 0 Z M 0.859375 0 "/></g></g></g><g fill="#f4f4f5" fill-opacity="1"><g transform="translate(196.430583, 247.916835)"><g><path d="M 3.578125 -11.28125 L 3.578125 0 L 0.859375 0 L 0.859375 -11.28125 Z M 3.578125 -11.28125 "/></g></g></g><g fill="#f4f4f5" fill-opacity="1"><g transform="translate(200.862573, 247.916835)"><g><path d="M 10.453125 -11.28125 L 10.453125 0 L 8.140625 0 L 3.65625 -6.515625 L 3.578125 -6.515625 L 3.578125 0 L 0.859375 0 L 0.859375 -11.28125 L 3.203125 -11.28125 L 7.640625 -4.78125 L 7.734375 -4.78125 L 7.734375 -11.28125 Z M 10.453125 -11.28125 "/></g></g></g><g fill="#f4f4f5" fill-opacity="1"><g transform="translate(212.165515, 247.916835)"><g><path d="M 3.296875 0 L 0.359375 0 L 4.171875 -11.28125 L 7.796875 -11.28125 L 11.609375 0 L 8.671875 0 L 6.03125 -8.4375 L 5.9375 -8.4375 Z M 2.90625 -4.4375 L 9.03125 -4.4375 L 9.03125 -2.375 L 2.90625 -2.375 Z M 2.90625 -4.4375 "/></g></g></g><g fill="#f4f4f5" fill-opacity="1"><g transform="translate(224.129127, 247.916835)"><g><path d="M 10.453125 -11.28125 L 10.453125 0 L 8.140625 0 L 3.65625 -6.515625 L 3.578125 -6.515625 L 3.578125 0 L 0.859375 0 L 0.859375 -11.28125 L 3.203125 -11.28125 L 7.640625 -4.78125 L 7.734375 -4.78125 L 7.734375 -11.28125 Z M 10.453125 -11.28125 "/></g></g></g><g fill="#f4f4f5" fill-opacity="1"><g transform="translate(235.432069, 247.916835)"><g><path d="M 11.09375 -7.203125 L 8.34375 -7.203125 C 8.300781 -7.484375 8.222656 -7.734375 8.109375 -7.953125 C 7.992188 -8.179688 7.84375 -8.375 7.65625 -8.53125 C 7.476562 -8.695312 7.257812 -8.820312 7 -8.90625 C 6.75 -9 6.46875 -9.046875 6.15625 -9.046875 C 5.601562 -9.046875 5.128906 -8.910156 4.734375 -8.640625 C 4.347656 -8.378906 4.046875 -7.992188 3.828125 -7.484375 C 3.617188 -6.972656 3.515625 -6.359375 3.515625 -5.640625 C 3.515625 -4.890625 3.617188 -4.257812 3.828125 -3.75 C 4.046875 -3.25 4.347656 -2.867188 4.734375 -2.609375 C 5.128906 -2.359375 5.597656 -2.234375 6.140625 -2.234375 C 6.441406 -2.234375 6.710938 -2.269531 6.953125 -2.34375 C 7.203125 -2.425781 7.421875 -2.539062 7.609375 -2.6875 C 7.804688 -2.84375 7.960938 -3.023438 8.078125 -3.234375 C 8.203125 -3.453125 8.289062 -3.695312 8.34375 -3.96875 L 11.09375 -3.953125 C 11.050781 -3.453125 10.90625 -2.957031 10.65625 -2.46875 C 10.414062 -1.988281 10.085938 -1.546875 9.671875 -1.140625 C 9.253906 -0.742188 8.742188 -0.425781 8.140625 -0.1875 C 7.546875 0.0390625 6.859375 0.15625 6.078125 0.15625 C 5.054688 0.15625 4.140625 -0.0664062 3.328125 -0.515625 C 2.523438 -0.972656 1.890625 -1.628906 1.421875 -2.484375 C 0.960938 -3.347656 0.734375 -4.398438 0.734375 -5.640625 C 0.734375 -6.878906 0.96875 -7.929688 1.4375 -8.796875 C 1.914062 -9.660156 2.554688 -10.316406 3.359375 -10.765625 C 4.171875 -11.210938 5.078125 -11.4375 6.078125 -11.4375 C 6.765625 -11.4375 7.394531 -11.34375 7.96875 -11.15625 C 8.550781 -10.96875 9.0625 -10.691406 9.5 -10.328125 C 9.945312 -9.960938 10.304688 -9.515625 10.578125 -8.984375 C 10.859375 -8.460938 11.03125 -7.867188 11.09375 -7.203125 Z M 11.09375 -7.203125 "/></g></g></g><g fill="#f4f4f5" fill-opacity="1"><g transform="translate(247.219509, 247.916835)"><g><path d="M 0.859375 0 L 0.859375 -11.28125 L 8.71875 -11.28125 L 8.71875 -9.0625 L 3.578125 -9.0625 L 3.578125 -6.75 L 8.3125 -6.75 L 8.3125 -4.53125 L 3.578125 -4.53125 L 3.578125 -2.21875 L 8.71875 -2.21875 L 8.71875 0 Z M 0.859375 0 "/></g></g></g><g fill="#f4f4f5" fill-opacity="1"><g transform="translate(256.788202, 247.916835)"><g/></g></g><g fill="#f4f4f5" fill-opacity="1"><g transform="translate(260.124581, 247.916835)"><g><path d="M 6.953125 -7.90625 C 6.910156 -8.300781 6.742188 -8.613281 6.453125 -8.84375 C 6.171875 -9.070312 5.765625 -9.1875 5.234375 -9.1875 C 4.878906 -9.1875 4.582031 -9.140625 4.34375 -9.046875 C 4.113281 -8.953125 3.9375 -8.828125 3.8125 -8.671875 C 3.695312 -8.515625 3.640625 -8.332031 3.640625 -8.125 C 3.628906 -7.957031 3.660156 -7.804688 3.734375 -7.671875 C 3.816406 -7.546875 3.929688 -7.429688 4.078125 -7.328125 C 4.222656 -7.234375 4.394531 -7.148438 4.59375 -7.078125 C 4.800781 -7.003906 5.035156 -6.941406 5.296875 -6.890625 L 6.265625 -6.671875 C 6.828125 -6.546875 7.320312 -6.378906 7.75 -6.171875 C 8.175781 -5.972656 8.535156 -5.734375 8.828125 -5.453125 C 9.117188 -5.179688 9.335938 -4.863281 9.484375 -4.5 C 9.640625 -4.132812 9.71875 -3.722656 9.71875 -3.265625 C 9.71875 -2.554688 9.535156 -1.945312 9.171875 -1.4375 C 8.816406 -0.925781 8.304688 -0.535156 7.640625 -0.265625 C 6.972656 0.00390625 6.171875 0.140625 5.234375 0.140625 C 4.285156 0.140625 3.460938 0 2.765625 -0.28125 C 2.066406 -0.5625 1.519531 -0.988281 1.125 -1.5625 C 0.738281 -2.144531 0.539062 -2.875 0.53125 -3.75 L 3.140625 -3.75 C 3.160156 -3.394531 3.253906 -3.09375 3.421875 -2.84375 C 3.597656 -2.601562 3.835938 -2.421875 4.140625 -2.296875 C 4.441406 -2.171875 4.796875 -2.109375 5.203125 -2.109375 C 5.566406 -2.109375 5.878906 -2.15625 6.140625 -2.25 C 6.398438 -2.351562 6.597656 -2.492188 6.734375 -2.671875 C 6.878906 -2.847656 6.953125 -3.050781 6.953125 -3.28125 C 6.953125 -3.488281 6.882812 -3.671875 6.75 -3.828125 C 6.625 -3.984375 6.425781 -4.113281 6.15625 -4.21875 C 5.894531 -4.332031 5.554688 -4.4375 5.140625 -4.53125 L 3.96875 -4.8125 C 2.988281 -5.03125 2.21875 -5.390625 1.65625 -5.890625 C 1.09375 -6.398438 0.816406 -7.082031 0.828125 -7.9375 C 0.816406 -8.632812 1 -9.242188 1.375 -9.765625 C 1.757812 -10.296875 2.285156 -10.707031 2.953125 -11 C 3.617188 -11.289062 4.378906 -11.4375 5.234375 -11.4375 C 6.109375 -11.4375 6.867188 -11.285156 7.515625 -10.984375 C 8.160156 -10.691406 8.660156 -10.28125 9.015625 -9.75 C 9.367188 -9.21875 9.550781 -8.601562 9.5625 -7.90625 Z M 6.953125 -7.90625 "/></g></g></g><g fill="#f4f4f5" fill-opacity="1"><g transform="translate(270.36495, 247.916835)"><g><path d="M 11.5 -5.640625 C 11.5 -4.398438 11.257812 -3.347656 10.78125 -2.484375 C 10.3125 -1.617188 9.664062 -0.960938 8.84375 -0.515625 C 8.03125 -0.0664062 7.117188 0.15625 6.109375 0.15625 C 5.097656 0.15625 4.1875 -0.0664062 3.375 -0.515625 C 2.5625 -0.972656 1.914062 -1.628906 1.4375 -2.484375 C 0.96875 -3.347656 0.734375 -4.398438 0.734375 -5.640625 C 0.734375 -6.878906 0.96875 -7.929688 1.4375 -8.796875 C 1.914062 -9.660156 2.5625 -10.316406 3.375 -10.765625 C 4.1875 -11.210938 5.097656 -11.4375 6.109375 -11.4375 C 7.117188 -11.4375 8.03125 -11.210938 8.84375 -10.765625 C 9.664062 -10.316406 10.3125 -9.660156 10.78125 -8.796875 C 11.257812 -7.929688 11.5 -6.878906 11.5 -5.640625 Z M 8.71875 -5.640625 C 8.71875 -6.378906 8.613281 -7 8.40625 -7.5 C 8.195312 -8.007812 7.898438 -8.394531 7.515625 -8.65625 C 7.128906 -8.914062 6.660156 -9.046875 6.109375 -9.046875 C 5.578125 -9.046875 5.113281 -8.914062 4.71875 -8.65625 C 4.332031 -8.394531 4.035156 -8.007812 3.828125 -7.5 C 3.617188 -7 3.515625 -6.378906 3.515625 -5.640625 C 3.515625 -4.910156 3.617188 -4.289062 3.828125 -3.78125 C 4.035156 -3.269531 4.332031 -2.882812 4.71875 -2.625 C 5.113281 -2.363281 5.578125 -2.234375 6.109375 -2.234375 C 6.660156 -2.234375 7.128906 -2.363281 7.515625 -2.625 C 7.898438 -2.882812 8.195312 -3.269531 8.40625 -3.78125 C 8.613281 -4.289062 8.71875 -4.910156 8.71875 -5.640625 Z M 8.71875 -5.640625 "/></g></g></g><g fill="#f4f4f5" fill-opacity="1"><g transform="translate(282.592833, 247.916835)"><g><path d="M 0.859375 0 L 0.859375 -11.28125 L 8.5625 -11.28125 L 8.5625 -9.0625 L 3.578125 -9.0625 L 3.578125 -6.75 L 8.0625 -6.75 L 8.0625 -4.53125 L 3.578125 -4.53125 L 3.578125 0 Z M 0.859375 0 "/></g></g></g><g fill="#f4f4f5" fill-opacity="1"><g transform="translate(291.655007, 247.916835)"><g><path d="M 0.484375 -9.0625 L 0.484375 -11.28125 L 10.015625 -11.28125 L 10.015625 -9.0625 L 6.59375 -9.0625 L 6.59375 0 L 3.90625 0 L 3.90625 -9.0625 Z M 0.484375 -9.0625 "/></g></g></g><g fill="#f4f4f5" fill-opacity="1"><g transform="translate(302.154144, 247.916835)"><g><path d="M 3.5625 0 L 0.28125 -11.28125 L 3.296875 -11.28125 L 4.984375 -3.890625 L 5.078125 -3.890625 L 7.03125 -11.28125 L 9.484375 -11.28125 L 11.4375 -3.875 L 11.53125 -3.875 L 13.234375 -11.28125 L 16.25 -11.28125 L 12.96875 0 L 10.34375 0 L 8.296875 -6.84375 L 8.21875 -6.84375 L 6.1875 0 Z M 3.5625 0 "/></g></g></g><g fill="#f4f4f5" fill-opacity="1"><g transform="translate(318.659866, 247.916835)"><g><path d="M 3.296875 0 L 0.359375 0 L 4.171875 -11.28125 L 7.796875 -11.28125 L 11.609375 0 L 8.671875 0 L 6.03125 -8.4375 L 5.9375 -8.4375 Z M 2.90625 -4.4375 L 9.03125 -4.4375 L 9.03125 -2.375 L 2.90625 -2.375 Z M 2.90625 -4.4375 "/></g></g></g><g fill="#f4f4f5" fill-opacity="1"><g transform="translate(330.623478, 247.916835)"><g><path d="M 0.859375 0 L 0.859375 -11.28125 L 5.515625 -11.28125 C 6.359375 -11.28125 7.085938 -11.128906 7.703125 -10.828125 C 8.316406 -10.523438 8.789062 -10.09375 9.125 -9.53125 C 9.457031 -8.96875 9.625 -8.300781 9.625 -7.53125 C 9.625 -6.75 9.453125 -6.082031 9.109375 -5.53125 C 8.773438 -4.988281 8.289062 -4.570312 7.65625 -4.28125 C 7.03125 -4 6.289062 -3.859375 5.4375 -3.859375 L 2.484375 -3.859375 L 2.484375 -6.015625 L 4.921875 -6.015625 C 5.335938 -6.015625 5.679688 -6.066406 5.953125 -6.171875 C 6.234375 -6.285156 6.441406 -6.453125 6.578125 -6.671875 C 6.722656 -6.890625 6.796875 -7.175781 6.796875 -7.53125 C 6.796875 -7.875 6.722656 -8.160156 6.578125 -8.390625 C 6.441406 -8.617188 6.234375 -8.789062 5.953125 -8.90625 C 5.671875 -9.019531 5.328125 -9.078125 4.921875 -9.078125 L 3.578125 -9.078125 L 3.578125 0 Z M 7.203125 -5.15625 L 10.015625 0 L 7.046875 0 L 4.28125 -5.15625 Z M 7.203125 -5.15625 "/></g></g></g><g fill="#f4f4f5" fill-opacity="1"><g transform="translate(340.885881, 247.916835)"><g><path d="M 0.859375 0 L 0.859375 -11.28125 L 8.71875 -11.28125 L 8.71875 -9.0625 L 3.578125 -9.0625 L 3.578125 -6.75 L 8.3125 -6.75 L 8.3125 -4.53125 L 3.578125 -4.53125 L 3.578125 -2.21875 L 8.71875 -2.21875 L 8.71875 0 Z M 0.859375 0 "/></g></g></g></svg>
