<svg xmlns="http://www.w3.org/2000/svg" xmlns:xlink="http://www.w3.org/1999/xlink" width="600" zoomAndPan="magnify" viewBox="0 0 450 299.999988" height="400" preserveAspectRatio="xMidYMid meet" version="1.0"><defs><clipPath id="d60eb7bf18"><path d="M 75 0 L 375 0 L 375 300 L 75 300 Z M 75 0 " clip-rule="nonzero"/></clipPath><clipPath id="2335228a9b"><path d="M 225 0 C 142.15625 0 75 67.15625 75 150 C 75 232.84375 142.15625 300 225 300 C 307.84375 300 375 232.84375 375 150 C 375 67.15625 307.84375 0 225 0 Z M 225 0 " clip-rule="nonzero"/></clipPath><clipPath id="7090c92eb2"><path d="M 150 143 L 312 143 L 312 221.8125 L 150 221.8125 Z M 150 143 " clip-rule="nonzero"/></clipPath><clipPath id="da74841fe0"><path d="M 75 78.5625 L 375 78.5625 L 375 215 L 75 215 Z M 75 78.5625 " clip-rule="nonzero"/></clipPath></defs><g clip-path="url(#d60eb7bf18)"><g clip-path="url(#2335228a9b)"><path fill="#18181b" d="M 75 0 L 375 0 L 375 300 L 75 300 Z M 75 0 " fill-opacity="1" fill-rule="nonzero"/><path stroke-linecap="butt" transform="matrix(0.75, 0, 0, 0.75, 75.000003, -0.000000000000042633)" fill="none" stroke-linejoin="miter" d="M 200.000013 0.000000000000056843 C 89.54167 0.000000000000056843 -0.00000383333 89.541674 -0.00000383333 200.000016 C -0.00000383333 310.458359 89.54167 400.000033 200.000013 400.000033 C 310.458355 400.000033 400.000029 310.458359 400.000029 200.000016 C 400.000029 89.541674 310.458355 0.000000000000056843 200.000013 0.000000000000056843 Z M 200.000013 0.000000000000056843 " stroke="#f4f4f5" stroke-width="8" stroke-opacity="1" stroke-miterlimit="4"/></g></g><g clip-path="url(#7090c92eb2)"><path fill="#f4f4f5" d="M 311.320312 190.035156 L 311.523438 143.890625 L 219.710938 185.054688 L 197.523438 169.695312 L 150.695312 189.761719 C 179.160156 191.46875 201.824219 204.847656 222.917969 221.300781 L 222.917969 221.4375 L 222.984375 221.371094 L 223.054688 221.4375 L 223.054688 221.300781 C 248.039062 201.914062 275.070312 186.757812 311.320312 190.035156 Z M 311.320312 190.035156 " fill-opacity="1" fill-rule="evenodd"/></g><path fill="#f4f4f5" d="M 132.128906 197.75 L 111.375 206.691406 L 111.375 216.933594 C 143.1875 203.007812 173.699219 206.625 203.734375 217.820312 C 183.394531 205.394531 160.457031 197.203125 132.128906 197.75 Z M 132.128906 197.75 " fill-opacity="1" fill-rule="evenodd"/><path fill="#f4f4f5" d="M 321.898438 139.25 L 321.625 198.089844 C 290.089844 195.976562 265.105469 204.441406 243.191406 217.820312 C 273.226562 206.625 303.742188 203.007812 335.550781 216.933594 L 335.550781 132.96875 Z M 321.898438 139.25 " fill-opacity="1" fill-rule="evenodd"/><g clip-path="url(#da74841fe0)"><path fill="#65a30d" d="M 335.414062 91.738281 L 341.832031 101.910156 L 311.660156 116.652344 L 311.863281 78.5625 C 278.007812 80.0625 243.804688 91.667969 224.554688 106.617188 C 200.867188 87.984375 168.101562 80.0625 134.242188 78.5625 L 134.789062 179.183594 L 125.300781 184.78125 L 124.824219 92.148438 L 111.375 98.425781 L 111.375 193.039062 L 75.128906 214.40625 L 198 160.070312 L 220.1875 174.132812 L 350.84375 115.21875 L 356.988281 124.09375 L 374.871094 89.621094 Z M 293.980469 96.992188 L 293.980469 125.253906 L 275.070312 134.46875 L 275.070312 96.992188 Z M 264.832031 112.695312 L 264.832031 139.453125 L 245.921875 148.667969 L 245.921875 112.695312 Z M 231.792969 123.273438 L 231.792969 155.5625 L 223.191406 159.796875 L 212.882812 150.308594 L 212.882812 123.273438 Z M 201.414062 106.074219 L 201.414062 139.726562 L 182.4375 150.921875 L 182.4375 106.074219 Z M 151.925781 117.0625 L 170.902344 117.0625 L 170.902344 157.746094 L 151.925781 168.941406 Z M 151.925781 117.0625 " fill-opacity="1" fill-rule="evenodd"/></g></svg>
