<svg xmlns="http://www.w3.org/2000/svg" xmlns:xlink="http://www.w3.org/1999/xlink" width="400" zoomAndPan="magnify" viewBox="0 0 300 299.999988" height="400" preserveAspectRatio="xMidYMid meet" version="1.0"><defs><g/><clipPath id="0df882943d"><path d="M 74.878906 9.816406 L 224.832031 9.816406 L 224.832031 195 L 74.878906 195 Z M 74.878906 9.816406 " clip-rule="nonzero"/></clipPath></defs><g clip-path="url(#0df882943d)"><path fill="#ea580c" d="M 225.078125 50.875 L 213.335938 52.054688 L 213.335938 161.75 L 104.234375 184.015625 C 99.542969 184.605469 96.035156 182.832031 93.671875 181.097656 L 79.605469 184.015625 C 83.113281 188.703125 91.9375 196.34375 108.921875 193.984375 L 225.039062 169.945312 L 225.039062 50.875 Z M 100.136719 123.609375 L 136.503906 103.671875 L 136.503906 116.558594 L 175.785156 91.339844 L 174.015625 86.652344 L 185.753906 90.75 L 180.476562 101.898438 L 178.703125 97.800781 L 169.324219 103.671875 L 169.324219 148.238281 L 190.445312 143.546875 L 190.445312 24.476562 L 92.527344 46.777344 C 89.019531 47.957031 86.660156 51.464844 86.660156 54.972656 L 86.660156 165.257812 L 108.367188 160.570312 L 108.367188 126.5625 L 100.171875 131.253906 L 100.171875 123.609375 Z M 151.75 114.824219 L 147.652344 117.738281 L 147.652344 164.667969 L 130.042969 168.175781 L 130.042969 114.824219 L 125.351562 117.1875 L 125.351562 168.800781 L 88.394531 176.40625 L 74.917969 179.324219 L 74.917969 54.972656 C 74.917969 46.1875 81.378906 37.953125 89.574219 35.625 L 91.347656 35.035156 L 201.59375 9.816406 L 201.59375 152.925781 L 151.75 163.484375 Z M 169.363281 93.703125 L 169.363281 47.957031 L 151.75 52.054688 L 151.75 104.855469 Z M 130.042969 71.992188 L 130.042969 104.855469 L 138.828125 100.753906 L 138.828125 113.085938 L 147.617188 107.21875 L 147.617188 68.488281 Z M 108.332031 94.847656 L 108.332031 117.148438 L 125.351562 107.769531 L 125.351562 90.75 Z M 108.332031 94.847656 " fill-opacity="1" fill-rule="nonzero"/></g><g fill="#fafafa" fill-opacity="1"><g transform="translate(15.134117, 243.676782)"><g><path d="M 1.984375 0 L 1.984375 -26.265625 L 19.921875 -26.265625 L 19.921875 -21.109375 L 8.34375 -21.109375 L 8.34375 -15.734375 L 18.78125 -15.734375 L 18.78125 -10.5625 L 8.34375 -10.5625 L 8.34375 0 Z M 1.984375 0 "/></g></g></g><g fill="#fafafa" fill-opacity="1"><g transform="translate(38.810464, 243.676782)"><g><path d="M 1.984375 0 L 1.984375 -26.265625 L 8.34375 -26.265625 L 8.34375 -5.15625 L 19.265625 -5.15625 L 19.265625 0 Z M 1.984375 0 "/></g></g></g><g fill="#fafafa" fill-opacity="1"><g transform="translate(61.935296, 243.676782)"><g><path d="M 1.984375 0 L 1.984375 -26.265625 L 20.3125 -26.265625 L 20.3125 -21.109375 L 8.34375 -21.109375 L 8.34375 -15.734375 L 19.375 -15.734375 L 19.375 -10.5625 L 8.34375 -10.5625 L 8.34375 -5.15625 L 20.3125 -5.15625 L 20.3125 0 Z M 1.984375 0 "/></g></g></g><g fill="#fafafa" fill-opacity="1"><g transform="translate(86.791613, 243.676782)"><g><path d="M 8.421875 -26.265625 L 13.21875 -17.96875 L 13.421875 -17.96875 L 18.265625 -26.265625 L 25.375 -26.265625 L 17.453125 -13.140625 L 25.625 0 L 18.34375 0 L 13.421875 -8.390625 L 13.21875 -8.390625 L 8.28125 0 L 1.046875 0 L 9.203125 -13.140625 L 1.25 -26.265625 Z M 8.421875 -26.265625 "/></g></g></g><g fill="#fafafa" fill-opacity="1"><g transform="translate(116.034355, 243.676782)"><g><path d="M 8.34375 -26.265625 L 8.34375 0 L 1.984375 0 L 1.984375 -26.265625 Z M 8.34375 -26.265625 "/></g></g></g><g fill="#fafafa" fill-opacity="1"><g transform="translate(128.924212, 243.676782)"><g><path d="M 1.984375 0 L 1.984375 -26.265625 L 8.34375 -26.265625 L 8.34375 -5.15625 L 19.265625 -5.15625 L 19.265625 0 Z M 1.984375 0 "/></g></g></g><g fill="#fafafa" fill-opacity="1"><g transform="translate(152.049047, 243.676782)"><g><path d="M 1.984375 0 L 1.984375 -26.265625 L 20.3125 -26.265625 L 20.3125 -21.109375 L 8.34375 -21.109375 L 8.34375 -15.734375 L 19.375 -15.734375 L 19.375 -10.5625 L 8.34375 -10.5625 L 8.34375 -5.15625 L 20.3125 -5.15625 L 20.3125 0 Z M 1.984375 0 "/></g></g></g><g fill="#fafafa" fill-opacity="1"><g transform="translate(176.90536, 243.676782)"><g><path d="M 11.703125 0 L 1.984375 0 L 1.984375 -26.265625 L 11.6875 -26.265625 C 14.363281 -26.265625 16.671875 -25.738281 18.609375 -24.6875 C 20.546875 -23.644531 22.039062 -22.140625 23.09375 -20.171875 C 24.144531 -18.210938 24.671875 -15.875 24.671875 -13.15625 C 24.671875 -10.414062 24.144531 -8.0625 23.09375 -6.09375 C 22.050781 -4.125 20.554688 -2.613281 18.609375 -1.5625 C 16.671875 -0.519531 14.367188 0 11.703125 0 Z M 8.34375 -5.40625 L 11.453125 -5.40625 C 12.921875 -5.40625 14.164062 -5.65625 15.1875 -6.15625 C 16.21875 -6.664062 16.992188 -7.484375 17.515625 -8.609375 C 18.046875 -9.742188 18.3125 -11.257812 18.3125 -13.15625 C 18.3125 -15.039062 18.046875 -16.546875 17.515625 -17.671875 C 16.984375 -18.796875 16.203125 -19.609375 15.171875 -20.109375 C 14.140625 -20.609375 12.867188 -20.859375 11.359375 -20.859375 L 8.34375 -20.859375 Z M 8.34375 -5.40625 "/></g></g></g><g fill="#fafafa" fill-opacity="1"><g transform="translate(205.840279, 243.676782)"><g><path d="M 19.234375 -17.6875 C 19.085938 -18.226562 18.875 -18.707031 18.59375 -19.125 C 18.3125 -19.539062 17.960938 -19.890625 17.546875 -20.171875 C 17.140625 -20.460938 16.671875 -20.679688 16.140625 -20.828125 C 15.609375 -20.984375 15.023438 -21.0625 14.390625 -21.0625 C 13.117188 -21.0625 12.019531 -20.753906 11.09375 -20.140625 C 10.164062 -19.523438 9.445312 -18.628906 8.9375 -17.453125 C 8.4375 -16.273438 8.1875 -14.847656 8.1875 -13.171875 C 8.1875 -11.484375 8.425781 -10.046875 8.90625 -8.859375 C 9.394531 -7.671875 10.101562 -6.765625 11.03125 -6.140625 C 11.957031 -5.515625 13.078125 -5.203125 14.390625 -5.203125 C 15.554688 -5.203125 16.539062 -5.390625 17.34375 -5.765625 C 18.15625 -6.148438 18.769531 -6.691406 19.1875 -7.390625 C 19.601562 -8.097656 19.8125 -8.925781 19.8125 -9.875 L 21 -9.734375 L 14.609375 -9.734375 L 14.609375 -14.375 L 25.9375 -14.375 L 25.9375 -10.890625 C 25.9375 -8.535156 25.4375 -6.519531 24.4375 -4.84375 C 23.445312 -3.164062 22.082031 -1.878906 20.34375 -0.984375 C 18.601562 -0.0859375 16.601562 0.359375 14.34375 0.359375 C 11.832031 0.359375 9.628906 -0.179688 7.734375 -1.265625 C 5.835938 -2.359375 4.359375 -3.910156 3.296875 -5.921875 C 2.234375 -7.929688 1.703125 -10.320312 1.703125 -13.09375 C 1.703125 -15.25 2.019531 -17.160156 2.65625 -18.828125 C 3.300781 -20.503906 4.195312 -21.925781 5.34375 -23.09375 C 6.5 -24.257812 7.835938 -25.140625 9.359375 -25.734375 C 10.878906 -26.328125 12.515625 -26.625 14.265625 -26.625 C 15.785156 -26.625 17.203125 -26.40625 18.515625 -25.96875 C 19.828125 -25.539062 20.988281 -24.925781 22 -24.125 C 23.019531 -23.332031 23.84375 -22.390625 24.46875 -21.296875 C 25.101562 -20.203125 25.5 -19 25.65625 -17.6875 Z M 19.234375 -17.6875 "/></g></g></g><g fill="#fafafa" fill-opacity="1"><g transform="translate(236.096258, 243.676782)"><g><path d="M 1.984375 0 L 1.984375 -26.265625 L 20.3125 -26.265625 L 20.3125 -21.109375 L 8.34375 -21.109375 L 8.34375 -15.734375 L 19.375 -15.734375 L 19.375 -10.5625 L 8.34375 -10.5625 L 8.34375 -5.15625 L 20.3125 -5.15625 L 20.3125 0 Z M 1.984375 0 "/></g></g></g><g fill="#fafafa" fill-opacity="1"><g transform="translate(260.952572, 243.676782)"><g><path d="M 1.984375 0 L 1.984375 -26.265625 L 12.84375 -26.265625 C 14.8125 -26.265625 16.507812 -25.910156 17.9375 -25.203125 C 19.375 -24.503906 20.476562 -23.5 21.25 -22.1875 C 22.03125 -20.875 22.421875 -19.320312 22.421875 -17.53125 C 22.421875 -15.707031 22.019531 -14.160156 21.21875 -12.890625 C 20.425781 -11.617188 19.300781 -10.648438 17.84375 -9.984375 C 16.382812 -9.328125 14.65625 -9 12.65625 -9 L 5.78125 -9 L 5.78125 -14 L 11.46875 -14 C 12.425781 -14 13.226562 -14.125 13.875 -14.375 C 14.519531 -14.625 15.007812 -15.007812 15.34375 -15.53125 C 15.675781 -16.050781 15.84375 -16.71875 15.84375 -17.53125 C 15.84375 -18.34375 15.675781 -19.015625 15.34375 -19.546875 C 15.007812 -20.078125 14.515625 -20.476562 13.859375 -20.75 C 13.210938 -21.019531 12.414062 -21.15625 11.46875 -21.15625 L 8.34375 -21.15625 L 8.34375 0 Z M 16.78125 -12 L 23.328125 0 L 16.390625 0 L 9.984375 -12 Z M 16.78125 -12 "/></g></g></g><g fill="#ea580c" fill-opacity="1"><g transform="translate(20.309183, 266.347478)"><g><path d="M 0.890625 0 L 0.890625 -9.0625 L 4.296875 -9.0625 C 4.992188 -9.0625 5.578125 -8.929688 6.046875 -8.671875 C 6.523438 -8.410156 6.882812 -8.050781 7.125 -7.59375 C 7.363281 -7.144531 7.484375 -6.632812 7.484375 -6.0625 C 7.484375 -5.476562 7.359375 -4.960938 7.109375 -4.515625 C 6.867188 -4.066406 6.507812 -3.710938 6.03125 -3.453125 C 5.5625 -3.191406 4.972656 -3.0625 4.265625 -3.0625 L 2.015625 -3.0625 L 2.015625 -4.421875 L 4.046875 -4.421875 C 4.453125 -4.421875 4.785156 -4.488281 5.046875 -4.625 C 5.304688 -4.769531 5.5 -4.960938 5.625 -5.203125 C 5.75 -5.453125 5.8125 -5.738281 5.8125 -6.0625 C 5.8125 -6.382812 5.75 -6.664062 5.625 -6.90625 C 5.5 -7.15625 5.304688 -7.347656 5.046875 -7.484375 C 4.785156 -7.628906 4.453125 -7.703125 4.046875 -7.703125 L 2.53125 -7.703125 L 2.53125 0 Z M 0.890625 0 "/></g></g></g><g fill="#ea580c" fill-opacity="1"><g transform="translate(30.864758, 266.347478)"><g><path d="M 0.890625 0 L 0.890625 -9.0625 L 6.796875 -9.0625 L 6.796875 -7.6875 L 2.53125 -7.6875 L 2.53125 -5.234375 L 6.484375 -5.234375 L 6.484375 -3.859375 L 2.53125 -3.859375 L 2.53125 -1.375 L 6.828125 -1.375 L 6.828125 0 Z M 0.890625 0 "/></g></g></g><g fill="#ea580c" fill-opacity="1"><g transform="translate(40.973131, 266.347478)"><g><path d="M 0.890625 0 L 0.890625 -9.0625 L 4.296875 -9.0625 C 4.992188 -9.0625 5.578125 -8.941406 6.046875 -8.703125 C 6.523438 -8.460938 6.882812 -8.125 7.125 -7.6875 C 7.363281 -7.25 7.484375 -6.742188 7.484375 -6.171875 C 7.484375 -5.585938 7.359375 -5.082031 7.109375 -4.65625 C 6.867188 -4.226562 6.507812 -3.898438 6.03125 -3.671875 C 5.550781 -3.441406 4.960938 -3.328125 4.265625 -3.328125 L 1.84375 -3.328125 L 1.84375 -4.6875 L 4.046875 -4.6875 C 4.453125 -4.6875 4.785156 -4.742188 5.046875 -4.859375 C 5.304688 -4.972656 5.5 -5.140625 5.625 -5.359375 C 5.75 -5.578125 5.8125 -5.847656 5.8125 -6.171875 C 5.8125 -6.492188 5.75 -6.769531 5.625 -7 C 5.5 -7.226562 5.304688 -7.398438 5.046875 -7.515625 C 4.785156 -7.640625 4.453125 -7.703125 4.046875 -7.703125 L 2.53125 -7.703125 L 2.53125 0 Z M 5.578125 -4.109375 L 7.828125 0 L 5.984375 0 L 3.78125 -4.109375 Z M 5.578125 -4.109375 "/></g></g></g><g fill="#ea580c" fill-opacity="1"><g transform="translate(51.61726, 266.347478)"><g><path d="M 5.828125 -6.578125 C 5.785156 -6.960938 5.609375 -7.257812 5.296875 -7.46875 C 4.992188 -7.6875 4.597656 -7.796875 4.109375 -7.796875 C 3.765625 -7.796875 3.46875 -7.742188 3.21875 -7.640625 C 2.976562 -7.535156 2.789062 -7.394531 2.65625 -7.21875 C 2.53125 -7.039062 2.46875 -6.84375 2.46875 -6.625 C 2.46875 -6.4375 2.507812 -6.269531 2.59375 -6.125 C 2.6875 -5.988281 2.804688 -5.867188 2.953125 -5.765625 C 3.109375 -5.671875 3.273438 -5.59375 3.453125 -5.53125 C 3.640625 -5.46875 3.828125 -5.414062 4.015625 -5.375 L 4.859375 -5.15625 C 5.203125 -5.070312 5.53125 -4.960938 5.84375 -4.828125 C 6.164062 -4.691406 6.453125 -4.519531 6.703125 -4.3125 C 6.953125 -4.113281 7.148438 -3.867188 7.296875 -3.578125 C 7.453125 -3.285156 7.53125 -2.941406 7.53125 -2.546875 C 7.53125 -2.015625 7.394531 -1.546875 7.125 -1.140625 C 6.851562 -0.742188 6.457031 -0.429688 5.9375 -0.203125 C 5.425781 0.0234375 4.8125 0.140625 4.09375 0.140625 C 3.382812 0.140625 2.769531 0.03125 2.25 -0.1875 C 1.726562 -0.40625 1.320312 -0.722656 1.03125 -1.140625 C 0.75 -1.566406 0.59375 -2.078125 0.5625 -2.671875 L 2.1875 -2.671875 C 2.207031 -2.359375 2.300781 -2.097656 2.46875 -1.890625 C 2.644531 -1.679688 2.867188 -1.523438 3.140625 -1.421875 C 3.421875 -1.316406 3.734375 -1.265625 4.078125 -1.265625 C 4.429688 -1.265625 4.742188 -1.316406 5.015625 -1.421875 C 5.285156 -1.535156 5.492188 -1.6875 5.640625 -1.875 C 5.796875 -2.070312 5.878906 -2.300781 5.890625 -2.5625 C 5.878906 -2.789062 5.804688 -2.984375 5.671875 -3.140625 C 5.535156 -3.296875 5.347656 -3.425781 5.109375 -3.53125 C 4.867188 -3.632812 4.582031 -3.726562 4.25 -3.8125 L 3.21875 -4.078125 C 2.476562 -4.273438 1.890625 -4.566406 1.453125 -4.953125 C 1.023438 -5.347656 0.8125 -5.867188 0.8125 -6.515625 C 0.8125 -7.046875 0.953125 -7.515625 1.234375 -7.921875 C 1.523438 -8.328125 1.921875 -8.640625 2.421875 -8.859375 C 2.929688 -9.078125 3.503906 -9.1875 4.140625 -9.1875 C 4.773438 -9.1875 5.335938 -9.078125 5.828125 -8.859375 C 6.316406 -8.640625 6.695312 -8.332031 6.96875 -7.9375 C 7.25 -7.539062 7.394531 -7.085938 7.40625 -6.578125 Z M 5.828125 -6.578125 "/></g></g></g><g fill="#ea580c" fill-opacity="1"><g transform="translate(62.243685, 266.347478)"><g><path d="M 9 -4.53125 C 9 -3.550781 8.816406 -2.710938 8.453125 -2.015625 C 8.085938 -1.328125 7.585938 -0.796875 6.953125 -0.421875 C 6.328125 -0.0546875 5.617188 0.125 4.828125 0.125 C 4.035156 0.125 3.328125 -0.0546875 2.703125 -0.421875 C 2.078125 -0.796875 1.582031 -1.332031 1.21875 -2.03125 C 0.851562 -2.726562 0.671875 -3.5625 0.671875 -4.53125 C 0.671875 -5.507812 0.851562 -6.34375 1.21875 -7.03125 C 1.582031 -7.726562 2.078125 -8.257812 2.703125 -8.625 C 3.328125 -9 4.035156 -9.1875 4.828125 -9.1875 C 5.617188 -9.1875 6.328125 -9 6.953125 -8.625 C 7.585938 -8.257812 8.085938 -7.726562 8.453125 -7.03125 C 8.816406 -6.34375 9 -5.507812 9 -4.53125 Z M 7.34375 -4.53125 C 7.34375 -5.21875 7.234375 -5.796875 7.015625 -6.265625 C 6.804688 -6.742188 6.507812 -7.101562 6.125 -7.34375 C 5.75 -7.59375 5.316406 -7.71875 4.828125 -7.71875 C 4.335938 -7.71875 3.898438 -7.59375 3.515625 -7.34375 C 3.140625 -7.101562 2.84375 -6.742188 2.625 -6.265625 C 2.414062 -5.796875 2.3125 -5.21875 2.3125 -4.53125 C 2.3125 -3.84375 2.414062 -3.257812 2.625 -2.78125 C 2.84375 -2.3125 3.140625 -1.953125 3.515625 -1.703125 C 3.898438 -1.460938 4.335938 -1.34375 4.828125 -1.34375 C 5.316406 -1.34375 5.75 -1.460938 6.125 -1.703125 C 6.507812 -1.953125 6.804688 -2.3125 7.015625 -2.78125 C 7.234375 -3.257812 7.34375 -3.84375 7.34375 -4.53125 Z M 7.34375 -4.53125 "/></g></g></g><g fill="#ea580c" fill-opacity="1"><g transform="translate(74.437536, 266.347478)"><g><path d="M 8.34375 -9.0625 L 8.34375 0 L 6.890625 0 L 2.609375 -6.171875 L 2.53125 -6.171875 L 2.53125 0 L 0.890625 0 L 0.890625 -9.0625 L 2.359375 -9.0625 L 6.640625 -2.890625 L 6.71875 -2.890625 L 6.71875 -9.0625 Z M 8.34375 -9.0625 "/></g></g></g><g fill="#ea580c" fill-opacity="1"><g transform="translate(86.206318, 266.347478)"><g><path d="M 2.0625 0 L 0.3125 0 L 3.5 -9.0625 L 5.53125 -9.0625 L 8.71875 0 L 6.96875 0 L 4.546875 -7.203125 L 4.484375 -7.203125 Z M 2.109375 -3.5625 L 6.90625 -3.5625 L 6.90625 -2.234375 L 2.109375 -2.234375 Z M 2.109375 -3.5625 "/></g></g></g><g fill="#ea580c" fill-opacity="1"><g transform="translate(97.762573, 266.347478)"><g><path d="M 0.890625 0 L 0.890625 -9.0625 L 2.53125 -9.0625 L 2.53125 -1.375 L 6.53125 -1.375 L 6.53125 0 Z M 0.890625 0 "/></g></g></g><g fill="#ea580c" fill-opacity="1"><g transform="translate(107.352892, 266.347478)"><g/></g></g><g fill="#ea580c" fill-opacity="1"><g transform="translate(112.980329, 266.347478)"><g><path d="M 0.890625 0 L 0.890625 -9.0625 L 6.703125 -9.0625 L 6.703125 -7.6875 L 2.53125 -7.6875 L 2.53125 -5.234375 L 6.3125 -5.234375 L 6.3125 -3.859375 L 2.53125 -3.859375 L 2.53125 0 Z M 0.890625 0 "/></g></g></g><g fill="#ea580c" fill-opacity="1"><g transform="translate(122.814168, 266.347478)"><g><path d="M 2.53125 -9.0625 L 2.53125 0 L 0.890625 0 L 0.890625 -9.0625 Z M 2.53125 -9.0625 "/></g></g></g><g fill="#ea580c" fill-opacity="1"><g transform="translate(128.77369, 266.347478)"><g><path d="M 8.34375 -9.0625 L 8.34375 0 L 6.890625 0 L 2.609375 -6.171875 L 2.53125 -6.171875 L 2.53125 0 L 0.890625 0 L 0.890625 -9.0625 L 2.359375 -9.0625 L 6.640625 -2.890625 L 6.71875 -2.890625 L 6.71875 -9.0625 Z M 8.34375 -9.0625 "/></g></g></g><g fill="#ea580c" fill-opacity="1"><g transform="translate(140.542472, 266.347478)"><g><path d="M 2.0625 0 L 0.3125 0 L 3.5 -9.0625 L 5.53125 -9.0625 L 8.71875 0 L 6.96875 0 L 4.546875 -7.203125 L 4.484375 -7.203125 Z M 2.109375 -3.5625 L 6.90625 -3.5625 L 6.90625 -2.234375 L 2.109375 -2.234375 Z M 2.109375 -3.5625 "/></g></g></g><g fill="#ea580c" fill-opacity="1"><g transform="translate(152.098727, 266.347478)"><g><path d="M 8.34375 -9.0625 L 8.34375 0 L 6.890625 0 L 2.609375 -6.171875 L 2.53125 -6.171875 L 2.53125 0 L 0.890625 0 L 0.890625 -9.0625 L 2.359375 -9.0625 L 6.640625 -2.890625 L 6.71875 -2.890625 L 6.71875 -9.0625 Z M 8.34375 -9.0625 "/></g></g></g><g fill="#ea580c" fill-opacity="1"><g transform="translate(163.867509, 266.347478)"><g><path d="M 8.65625 -6.015625 L 7 -6.015625 C 6.945312 -6.285156 6.859375 -6.523438 6.734375 -6.734375 C 6.609375 -6.941406 6.453125 -7.117188 6.265625 -7.265625 C 6.078125 -7.410156 5.863281 -7.519531 5.625 -7.59375 C 5.382812 -7.675781 5.125 -7.71875 4.84375 -7.71875 C 4.351562 -7.71875 3.914062 -7.59375 3.53125 -7.34375 C 3.15625 -7.101562 2.859375 -6.742188 2.640625 -6.265625 C 2.421875 -5.796875 2.3125 -5.21875 2.3125 -4.53125 C 2.3125 -3.84375 2.421875 -3.257812 2.640625 -2.78125 C 2.859375 -2.3125 3.15625 -1.953125 3.53125 -1.703125 C 3.914062 -1.460938 4.351562 -1.34375 4.84375 -1.34375 C 5.113281 -1.34375 5.363281 -1.378906 5.59375 -1.453125 C 5.832031 -1.523438 6.046875 -1.632812 6.234375 -1.78125 C 6.429688 -1.925781 6.59375 -2.097656 6.71875 -2.296875 C 6.851562 -2.503906 6.945312 -2.742188 7 -3.015625 L 8.65625 -3 C 8.59375 -2.570312 8.457031 -2.164062 8.25 -1.78125 C 8.050781 -1.40625 7.785156 -1.070312 7.453125 -0.78125 C 7.117188 -0.5 6.726562 -0.273438 6.28125 -0.109375 C 5.84375 0.046875 5.351562 0.125 4.8125 0.125 C 4.019531 0.125 3.3125 -0.0546875 2.6875 -0.421875 C 2.0625 -0.796875 1.566406 -1.332031 1.203125 -2.03125 C 0.847656 -2.726562 0.671875 -3.5625 0.671875 -4.53125 C 0.671875 -5.507812 0.847656 -6.34375 1.203125 -7.03125 C 1.566406 -7.726562 2.0625 -8.257812 2.6875 -8.625 C 3.3125 -9 4.019531 -9.1875 4.8125 -9.1875 C 5.320312 -9.1875 5.789062 -9.113281 6.21875 -8.96875 C 6.65625 -8.832031 7.039062 -8.628906 7.375 -8.359375 C 7.71875 -8.085938 8 -7.753906 8.21875 -7.359375 C 8.445312 -6.960938 8.59375 -6.515625 8.65625 -6.015625 Z M 8.65625 -6.015625 "/></g></g></g><g fill="#ea580c" fill-opacity="1"><g transform="translate(175.671723, 266.347478)"><g><path d="M 0.890625 0 L 0.890625 -9.0625 L 6.796875 -9.0625 L 6.796875 -7.6875 L 2.53125 -7.6875 L 2.53125 -5.234375 L 6.484375 -5.234375 L 6.484375 -3.859375 L 2.53125 -3.859375 L 2.53125 -1.375 L 6.828125 -1.375 L 6.828125 0 Z M 0.890625 0 "/></g></g></g><g fill="#ea580c" fill-opacity="1"><g transform="translate(185.780094, 266.347478)"><g/></g></g><g fill="#ea580c" fill-opacity="1"><g transform="translate(191.407531, 266.347478)"><g><path d="M 5.828125 -6.578125 C 5.785156 -6.960938 5.609375 -7.257812 5.296875 -7.46875 C 4.992188 -7.6875 4.597656 -7.796875 4.109375 -7.796875 C 3.765625 -7.796875 3.46875 -7.742188 3.21875 -7.640625 C 2.976562 -7.535156 2.789062 -7.394531 2.65625 -7.21875 C 2.53125 -7.039062 2.46875 -6.84375 2.46875 -6.625 C 2.46875 -6.4375 2.507812 -6.269531 2.59375 -6.125 C 2.6875 -5.988281 2.804688 -5.867188 2.953125 -5.765625 C 3.109375 -5.671875 3.273438 -5.59375 3.453125 -5.53125 C 3.640625 -5.46875 3.828125 -5.414062 4.015625 -5.375 L 4.859375 -5.15625 C 5.203125 -5.070312 5.53125 -4.960938 5.84375 -4.828125 C 6.164062 -4.691406 6.453125 -4.519531 6.703125 -4.3125 C 6.953125 -4.113281 7.148438 -3.867188 7.296875 -3.578125 C 7.453125 -3.285156 7.53125 -2.941406 7.53125 -2.546875 C 7.53125 -2.015625 7.394531 -1.546875 7.125 -1.140625 C 6.851562 -0.742188 6.457031 -0.429688 5.9375 -0.203125 C 5.425781 0.0234375 4.8125 0.140625 4.09375 0.140625 C 3.382812 0.140625 2.769531 0.03125 2.25 -0.1875 C 1.726562 -0.40625 1.320312 -0.722656 1.03125 -1.140625 C 0.75 -1.566406 0.59375 -2.078125 0.5625 -2.671875 L 2.1875 -2.671875 C 2.207031 -2.359375 2.300781 -2.097656 2.46875 -1.890625 C 2.644531 -1.679688 2.867188 -1.523438 3.140625 -1.421875 C 3.421875 -1.316406 3.734375 -1.265625 4.078125 -1.265625 C 4.429688 -1.265625 4.742188 -1.316406 5.015625 -1.421875 C 5.285156 -1.535156 5.492188 -1.6875 5.640625 -1.875 C 5.796875 -2.070312 5.878906 -2.300781 5.890625 -2.5625 C 5.878906 -2.789062 5.804688 -2.984375 5.671875 -3.140625 C 5.535156 -3.296875 5.347656 -3.425781 5.109375 -3.53125 C 4.867188 -3.632812 4.582031 -3.726562 4.25 -3.8125 L 3.21875 -4.078125 C 2.476562 -4.273438 1.890625 -4.566406 1.453125 -4.953125 C 1.023438 -5.347656 0.8125 -5.867188 0.8125 -6.515625 C 0.8125 -7.046875 0.953125 -7.515625 1.234375 -7.921875 C 1.523438 -8.328125 1.921875 -8.640625 2.421875 -8.859375 C 2.929688 -9.078125 3.503906 -9.1875 4.140625 -9.1875 C 4.773438 -9.1875 5.335938 -9.078125 5.828125 -8.859375 C 6.316406 -8.640625 6.695312 -8.332031 6.96875 -7.9375 C 7.25 -7.539062 7.394531 -7.085938 7.40625 -6.578125 Z M 5.828125 -6.578125 "/></g></g></g><g fill="#ea580c" fill-opacity="1"><g transform="translate(202.033953, 266.347478)"><g><path d="M 9 -4.53125 C 9 -3.550781 8.816406 -2.710938 8.453125 -2.015625 C 8.085938 -1.328125 7.585938 -0.796875 6.953125 -0.421875 C 6.328125 -0.0546875 5.617188 0.125 4.828125 0.125 C 4.035156 0.125 3.328125 -0.0546875 2.703125 -0.421875 C 2.078125 -0.796875 1.582031 -1.332031 1.21875 -2.03125 C 0.851562 -2.726562 0.671875 -3.5625 0.671875 -4.53125 C 0.671875 -5.507812 0.851562 -6.34375 1.21875 -7.03125 C 1.582031 -7.726562 2.078125 -8.257812 2.703125 -8.625 C 3.328125 -9 4.035156 -9.1875 4.828125 -9.1875 C 5.617188 -9.1875 6.328125 -9 6.953125 -8.625 C 7.585938 -8.257812 8.085938 -7.726562 8.453125 -7.03125 C 8.816406 -6.34375 9 -5.507812 9 -4.53125 Z M 7.34375 -4.53125 C 7.34375 -5.21875 7.234375 -5.796875 7.015625 -6.265625 C 6.804688 -6.742188 6.507812 -7.101562 6.125 -7.34375 C 5.75 -7.59375 5.316406 -7.71875 4.828125 -7.71875 C 4.335938 -7.71875 3.898438 -7.59375 3.515625 -7.34375 C 3.140625 -7.101562 2.84375 -6.742188 2.625 -6.265625 C 2.414062 -5.796875 2.3125 -5.21875 2.3125 -4.53125 C 2.3125 -3.84375 2.414062 -3.257812 2.625 -2.78125 C 2.84375 -2.3125 3.140625 -1.953125 3.515625 -1.703125 C 3.898438 -1.460938 4.335938 -1.34375 4.828125 -1.34375 C 5.316406 -1.34375 5.75 -1.460938 6.125 -1.703125 C 6.507812 -1.953125 6.804688 -2.3125 7.015625 -2.78125 C 7.234375 -3.257812 7.34375 -3.84375 7.34375 -4.53125 Z M 7.34375 -4.53125 "/></g></g></g><g fill="#ea580c" fill-opacity="1"><g transform="translate(214.227815, 266.347478)"><g><path d="M 0.890625 0 L 0.890625 -9.0625 L 6.703125 -9.0625 L 6.703125 -7.6875 L 2.53125 -7.6875 L 2.53125 -5.234375 L 6.3125 -5.234375 L 6.3125 -3.859375 L 2.53125 -3.859375 L 2.53125 0 Z M 0.890625 0 "/></g></g></g><g fill="#ea580c" fill-opacity="1"><g transform="translate(224.061654, 266.347478)"><g><path d="M 0.5 -7.6875 L 0.5 -9.0625 L 7.734375 -9.0625 L 7.734375 -7.6875 L 4.921875 -7.6875 L 4.921875 0 L 3.296875 0 L 3.296875 -7.6875 Z M 0.5 -7.6875 "/></g></g></g><g fill="#ea580c" fill-opacity="1"><g transform="translate(234.820907, 266.347478)"><g><path d="M 2.796875 0 L 0.25 -9.0625 L 2.015625 -9.0625 L 3.640625 -2.40625 L 3.734375 -2.40625 L 5.46875 -9.0625 L 7.078125 -9.0625 L 8.828125 -2.40625 L 8.90625 -2.40625 L 10.546875 -9.0625 L 12.3125 -9.0625 L 9.75 0 L 8.125 0 L 6.3125 -6.359375 L 6.25 -6.359375 L 4.421875 0 Z M 2.796875 0 "/></g></g></g><g fill="#ea580c" fill-opacity="1"><g transform="translate(249.906119, 266.347478)"><g><path d="M 2.0625 0 L 0.3125 0 L 3.5 -9.0625 L 5.53125 -9.0625 L 8.71875 0 L 6.96875 0 L 4.546875 -7.203125 L 4.484375 -7.203125 Z M 2.109375 -3.5625 L 6.90625 -3.5625 L 6.90625 -2.234375 L 2.109375 -2.234375 Z M 2.109375 -3.5625 "/></g></g></g><g fill="#ea580c" fill-opacity="1"><g transform="translate(261.462384, 266.347478)"><g><path d="M 0.890625 0 L 0.890625 -9.0625 L 4.296875 -9.0625 C 4.992188 -9.0625 5.578125 -8.941406 6.046875 -8.703125 C 6.523438 -8.460938 6.882812 -8.125 7.125 -7.6875 C 7.363281 -7.25 7.484375 -6.742188 7.484375 -6.171875 C 7.484375 -5.585938 7.359375 -5.082031 7.109375 -4.65625 C 6.867188 -4.226562 6.507812 -3.898438 6.03125 -3.671875 C 5.550781 -3.441406 4.960938 -3.328125 4.265625 -3.328125 L 1.84375 -3.328125 L 1.84375 -4.6875 L 4.046875 -4.6875 C 4.453125 -4.6875 4.785156 -4.742188 5.046875 -4.859375 C 5.304688 -4.972656 5.5 -5.140625 5.625 -5.359375 C 5.75 -5.578125 5.8125 -5.847656 5.8125 -6.171875 C 5.8125 -6.492188 5.75 -6.769531 5.625 -7 C 5.5 -7.226562 5.304688 -7.398438 5.046875 -7.515625 C 4.785156 -7.640625 4.453125 -7.703125 4.046875 -7.703125 L 2.53125 -7.703125 L 2.53125 0 Z M 5.578125 -4.109375 L 7.828125 0 L 5.984375 0 L 3.78125 -4.109375 Z M 5.578125 -4.109375 "/></g></g></g><g fill="#ea580c" fill-opacity="1"><g transform="translate(272.10651, 266.347478)"><g><path d="M 0.890625 0 L 0.890625 -9.0625 L 6.796875 -9.0625 L 6.796875 -7.6875 L 2.53125 -7.6875 L 2.53125 -5.234375 L 6.484375 -5.234375 L 6.484375 -3.859375 L 2.53125 -3.859375 L 2.53125 -1.375 L 6.828125 -1.375 L 6.828125 0 Z M 0.890625 0 "/></g></g></g></svg>
